<svg xmlns="http://www.w3.org/2000/svg" width="48" height="48" viewBox="0 0 48 48">
    <g id="Group_6830" data-name="Group 6830" transform="translate(-459 -256)">
        <rect id="Rectangle_5298" data-name="Rectangle 5298" width="48" height="48" rx="24"
            transform="translate(459 256)" fill="#43d24c" />
        <path id="noun-correct-2394117"
            d="M9.2,57.057A4.055,4.055,0,0,1,6.381,55.92l-5.7-5.586A2.217,2.217,0,0,1,.7,47.125a2.4,2.4,0,0,1,3.318.021l5.171,5.069,12-11.763a2.4,2.4,0,0,1,3.32-.022,2.219,2.219,0,0,1,.022,3.209L12.009,55.918A4.044,4.044,0,0,1,9.2,57.057Z"
            transform="translate(469.994 231.223)" fill="#fff" />
    </g>
</svg>