<?xml version="1.0" encoding="UTF-8" standalone="no"?>
<svg id="SVGDoc" class="inline-block left-[-5px] relative" width="9.999733" height="5.993741" version="1.1"
   viewBox="0 0 9.999733 5.993741" sodipodi:docname="menu_arrow.svg" inkscape:version="1.2.1 (9c6d41e, 2022-07-14)"
   xmlns:inkscape="http://www.inkscape.org/namespaces/inkscape"
   xmlns:sodipodi="http://sodipodi.sourceforge.net/DTD/sodipodi-0.dtd" xmlns="http://www.w3.org/2000/svg"
   xmlns:svg="http://www.w3.org/2000/svg">
   <sodipodi:namedview id="namedview17" pagecolor="#505050" bordercolor="#eeeeee" borderopacity="1"
      inkscape:showpageshadow="0" inkscape:pageopacity="0" inkscape:pagecheckerboard="0" inkscape:deskcolor="#505050"
      showgrid="false" showguides="false" inkscape:zoom="9.0769231" inkscape:cx="5.1228814" inkscape:cy="3.029661"
      inkscape:window-width="1440" inkscape:window-height="847" inkscape:window-x="0" inkscape:window-y="25"
      inkscape:window-maximized="1" inkscape:current-layer="SVGDoc" />
   <defs id="defs2" />
   <desc id="desc4">Generated with Avocode.</desc>
   <g id="g14" transform="translate(-9.50004,-10.006169)">
      <g transform="rotate(90,14.5,13)" id="g12">
         <title id="title6">Path 4920</title>
         <path
            d="m 12.35886,17.49996 c -0.09192,0 -0.18396,-0.03419 -0.25421,-0.10255 -0.13989,-0.13641 -0.13953,-0.35722 7.3e-4,-0.49326 l 4.0274,-3.90418 v 0 L 12.1055,9.09579 c -0.14026,-0.13604 -0.14069,-0.35697 -7.3e-4,-0.49336 0.14008,-0.13641 0.36725,-0.13663 0.50757,-7e-4 l 4.28204,4.15127 c 0.0675,0.06546 0.10553,0.1543 0.10553,0.24697 0,0.09267 -0.0379,0.18163 -0.10553,0.24697 l -4.28204,4.15115 c -0.07013,0.0679 -0.16174,0.10187 -0.25348,0.10187 z"
            fill="#ffffff" fill-opacity="1" id="path8" />
         <path
            d="m 12.35886,17.49996 c -0.09192,0 -0.18396,-0.03419 -0.25421,-0.10255 -0.13989,-0.13641 -0.13953,-0.35722 7.3e-4,-0.49326 l 4.0274,-3.90418 v 0 L 12.1055,9.09579 c -0.14026,-0.13604 -0.14069,-0.35697 -7.3e-4,-0.49336 0.14008,-0.13641 0.36725,-0.13663 0.50757,-7e-4 l 4.28204,4.15127 c 0.0675,0.06546 0.10553,0.1543 0.10553,0.24697 0,0.09267 -0.0379,0.18163 -0.10553,0.24697 l -4.28204,4.15115 c -0.07013,0.0679 -0.16174,0.10187 -0.25348,0.10187 z"
            fill-opacity="0" fill="#ffffff" stroke-dashoffset="0" stroke-linejoin="miter" stroke-linecap="butt"
            stroke-opacity="1" stroke="#ffffff" stroke-miterlimit="20" stroke-width="1" id="path10" />
      </g>
   </g>
</svg>